<svg id="Marketing_Advertising_Icon" data-name="Marketing &amp; Advertising Icon" xmlns="http://www.w3.org/2000/svg" width="53.619" height="61.611" viewBox="0 0 53.619 61.611">
  <path id="Path_8" data-name="Path 8" d="M77.8,0H33.206V5.415h1.805V1.805H75.995V54.391H38.621V58a1.8,1.8,0,1,1-3.61,0V7.22H33.206V58a3.614,3.614,0,0,0,3.61,3.61H72.385V59.806H39.942a3.589,3.589,0,0,0,.484-1.8V56.2H78.7V58a1.807,1.807,0,0,1-1.805,1.8H74.19v1.805H76.9A3.614,3.614,0,0,0,80.508,58v-3.61H77.8Z" transform="translate(-33.206)" fill="#fff"/>
  <path id="Path_9" data-name="Path 9" d="M358.794,30h1.8v1.805h-1.8Z" transform="translate(-319.615 -26.39)" fill="#fff"/>
  <path id="Path_10" data-name="Path 10" d="M328.794,30h1.8v1.805h-1.8Z" transform="translate(-293.225 -26.39)" fill="#fff"/>
  <path id="Path_11" data-name="Path 11" d="M436.5,68.5a2.711,2.711,0,0,0-2.707,2.708v38.118l2.707,5.415,2.707-5.415V71.207A2.711,2.711,0,0,0,436.5,68.5Zm0,1.8a.9.9,0,0,1,.9.9v1.805H435.6V71.207A.9.9,0,0,1,436.5,70.3Zm-.9,19.855V74.817H437.4V90.159Zm1.805,1.8V105.5H435.6V91.964Zm-.9,18.74-.9-1.8v-1.592H437.4V108.9Z" transform="translate(-385.589 -60.256)" fill="#fad604"/>
  <path id="Path_12" data-name="Path 12" d="M233.774,81.6c0-2.219-1.274-3.71-3.17-3.71h-2.493v7.421h2.555C232.467,85.281,233.774,83.721,233.774,81.6Zm-3.133,1.905h-.726V79.7h.688c1.267,0,1.365,1.458,1.365,1.905C231.969,82.9,231.3,83.492,230.641,83.508Z" transform="translate(-204.657 -68.519)" fill="#fff"/>
  <path id="Path_13" data-name="Path 13" d="M84.352,77.693h1.591V83.48h1.8V77.693h1.6v-1.8h-5Z" transform="translate(-78.197 -66.756)" fill="#fff"/>
  <path id="Path_14" data-name="Path 14" d="M138.818,75.888a3.8,3.8,0,1,0,3.8,3.8A3.8,3.8,0,0,0,138.818,75.888Zm0,5.787a1.991,1.991,0,1,1,1.991-1.991A1.993,1.993,0,0,1,138.818,81.675Z" transform="translate(-122.77 -66.756)" fill="#fff"/>
  <path id="Path_15" data-name="Path 15" d="M289.557,79.684a3.8,3.8,0,1,0,3.8-3.8A3.8,3.8,0,0,0,289.557,79.684Zm5.787,0a1.991,1.991,0,1,1-1.991-1.991A1.993,1.993,0,0,1,295.344,79.684Z" transform="translate(-258.71 -66.756)" fill="#fff"/>
  <path id="Path_16" data-name="Path 16" d="M153.563,323.611h23.751v1.805H153.563Z" transform="translate(-139.08 -284.67)" fill="#fff"/>
  <path id="Path_17" data-name="Path 17" d="M153.563,263.612h23.751v1.8H153.563Z" transform="translate(-139.08 -231.891)" fill="#fff"/>
  <path id="Path_18" data-name="Path 18" d="M153.563,383.612h23.751v1.8H153.563Z" transform="translate(-139.08 -337.451)" fill="#fff"/>
  <path id="Path_19" data-name="Path 19" d="M153.563,203.613h23.751v1.805H153.563Z" transform="translate(-139.08 -179.112)" fill="#fff"/>
  <path id="Path_20" data-name="Path 20" d="M92.1,180.1l-1.276-1.276L89.547,180.1l2.553,2.553,3.829-3.829-1.276-1.276Z" transform="translate(-82.767 -156.185)" fill="#fff"/>
  <path id="Path_21" data-name="Path 21" d="M94.652,237.55,92.1,240.1l-1.276-1.276L89.547,240.1l2.553,2.553,3.829-3.829Z" transform="translate(-82.767 -208.965)" fill="#fff"/>
  <path id="Path_22" data-name="Path 22" d="M94.652,297.549,92.1,300.1l-1.276-1.276L89.547,300.1l2.553,2.553,3.829-3.829Z" transform="translate(-82.767 -261.744)" fill="#fff"/>
  <path id="Path_23" data-name="Path 23" d="M90.823,358.826,89.547,360.1l2.553,2.553,3.829-3.829-1.276-1.276L92.1,360.1Z" transform="translate(-82.767 -314.525)" fill="#fff"/>
</svg>
