<svg id="Food_Dining_Icon" data-name="Food &amp; Dining Icon" xmlns="http://www.w3.org/2000/svg" width="62.193" height="60.456" viewBox="0 0 62.193 60.456">
  <g id="Group_22" data-name="Group 22" transform="translate(0 0)">
    <path id="Path_5" data-name="Path 5" d="M59.282,20.845H44.323l1.307-6.692a3.689,3.689,0,0,1,3-2.892L58.864,9.568a1.215,1.215,0,1,0-.4-2.4L48.232,8.864a6.134,6.134,0,0,0-4.985,4.816l-1.4,7.166H26.414A2.915,2.915,0,0,0,23.5,23.756v1.571a2.915,2.915,0,0,0,2.911,2.911h.705l.359,4.076a12.594,12.594,0,0,0-2.178-.19H12.158A12.171,12.171,0,0,0,0,44.283a4.505,4.505,0,0,0,1.393,3.259A4.348,4.348,0,0,0,1.174,53.7a2.943,2.943,0,0,0-.707,1.915v3.753a8.248,8.248,0,0,0,8.238,8.238H53.069a1.215,1.215,0,0,0,1.208-1.089l.6-5.812a1.215,1.215,0,1,0-2.416-.251l-.491,4.723H35.054a8.286,8.286,0,0,0,2.4-5.81V55.632s0,0,0,0,0,0,0-.005a2.947,2.947,0,0,0-.706-1.916,4.323,4.323,0,0,0,1.174-2.974,4.388,4.388,0,0,0-1.347-3.148,4.66,4.66,0,0,0,1.346-3.348,12.426,12.426,0,0,0-7.946-11.21l-.421-4.786h26.26L53.6,49.6a1.215,1.215,0,1,0,2.416.251L58.26,28.239h1.022a2.915,2.915,0,0,0,2.911-2.911V23.756A2.915,2.915,0,0,0,59.282,20.845ZM12.158,34.554H25.3a10.3,10.3,0,0,1,10.118,8.569c.18,1.38-.051,3.25-1.852,3.25H4.519a2.092,2.092,0,0,1-2.09-2.09,9.74,9.74,0,0,1,9.728-9.729ZM3.429,55.09H34.493a.565.565,0,0,1,.535.538,1.72,1.72,0,0,1-.507,1.217l-1.789,1.789a1.748,1.748,0,0,1-2.468-.021,4.166,4.166,0,0,0-5.885,0l-.027.027a1.733,1.733,0,0,1-2.448,0,4.2,4.2,0,0,0-5.884,0,1.733,1.733,0,0,1-2.447,0,4.207,4.207,0,0,0-5.933-.009,1.733,1.733,0,0,1-2.448,0L3.4,56.846A1.72,1.72,0,0,1,2.9,55.622a.533.533,0,0,1,.532-.532ZM33.566,48.8a1.929,1.929,0,1,1,0,3.858H4.359a1.929,1.929,0,1,1,0-3.858H33.566ZM2.913,59.792l.561.561a4.166,4.166,0,0,0,5.885,0,1.751,1.751,0,0,1,2.5.009,4.205,4.205,0,0,0,5.884,0,1.751,1.751,0,0,1,2.448,0,4.166,4.166,0,0,0,5.885,0l.027-.027a1.733,1.733,0,0,1,2.447,0,4.2,4.2,0,0,0,5.905.022l.56-.56a5.894,5.894,0,0,1-5.791,5.387H8.705a5.815,5.815,0,0,1-5.792-5.388ZM59.764,25.327a.483.483,0,0,1-.482.482H26.414a.483.483,0,0,1-.482-.482V23.756a.483.483,0,0,1,.482-.482H59.282a.483.483,0,0,1,.482.482Z" transform="translate(0 -7.155)" fill="#fff"/>
    <path id="Path_6" data-name="Path 6" d="M440.333,392.405a2.435,2.435,0,1,0,.917,2.9A2.453,2.453,0,0,0,440.333,392.405Z" transform="translate(-389.453 -347.217)" fill="#fad604"/>
  </g>
</svg>
